<svg xmlns="http://www.w3.org/2000/svg" version="1.1" viewBox="0 0 64 64" fill="#EBE0BD">
	<path d="M20,61L20,62L19,62L19,63L20,63L20,64L21,64L21,63L22,63L22,62L21,62L21,61L20,61ZM1,63L0,63L0,64L1,64L1,63ZM8,57L7,57L7,58L8,58L8,57ZM30,55L30,56L50,56L50,55L53,55L53,54L54,54L54,53L57,53L57,52L55,52L55,51L52,51L52,50L51,50L51,51L50,51L50,49L48,49L48,50L46,50L46,49L45,49L45,46L44,46L44,44L43,44L43,43L40,43L40,44L38,44L38,46L37,46L37,43L33,43L33,44L32,44L32,45L31,45L31,47L30,47L30,46L29,46L29,45L28,45L28,44L26,44L26,43L22,43L22,42L20,42L20,43L18,43L18,45L17,45L17,46L16,46L16,48L15,48L15,49L13,49L13,47L12,47L12,48L11,48L11,47L9,47L9,48L7,48L7,49L6,49L6,50L5,50L5,51L1,51L1,52L2,52L2,53L4,53L4,54L9,54L9,55L30,55ZM52,44L51,44L51,45L52,45L52,44ZM33,40L32,40L32,41L33,41L33,40ZM55,40L54,40L54,41L55,41L55,40ZM6,40L5,40L5,41L6,41L6,40ZM41,37L40,37L40,38L41,38L41,37ZM49,36L48,36L48,37L49,37L49,36ZM29,35L51,35L51,36L64,36L64,20L62,20L62,21L61,21L61,22L60,22L60,24L58,24L58,23L57,23L57,22L55,22L55,24L54,24L54,25L53,25L53,24L51,24L51,23L50,23L50,22L49,22L49,20L46,20L46,21L45,21L45,23L43,23L43,24L41,24L41,25L38,25L38,24L35,24L35,25L34,25L34,27L33,27L33,28L32,28L32,27L30,27L30,28L29,28L29,29L27,29L27,28L25,28L25,30L24,30L24,31L22,31L22,32L19,32L19,33L23,33L23,34L29,34L29,35ZM8,32L8,33L7,33L7,34L8,34L8,35L9,35L9,34L10,34L10,33L9,33L9,32L8,32ZM3,28L2,28L2,29L3,29L3,28ZM27,17L27,15L26,15L26,17L24,17L24,18L26,18L26,20L27,20L27,18L29,18L29,17L27,17ZM56,17L55,17L55,18L56,18L56,17ZM50,14L49,14L49,15L50,15L50,14ZM21,13L20,13L20,14L21,14L21,13ZM45,12L44,12L44,13L45,13L45,12ZM56,9L55,9L55,10L56,10L56,9ZM61,8L60,8L60,9L61,9L61,8ZM41,8L43,8L43,7L46,7L46,8L47,8L47,9L50,9L50,8L51,8L51,7L52,7L52,5L53,5L53,4L51,4L51,3L50,3L50,2L47,2L47,3L46,3L46,4L45,4L45,6L43,6L43,7L41,7L41,8ZM29,4L28,4L28,5L29,5L29,4ZM59,4L58,4L58,5L59,5L59,4ZM55,3L53,3L53,4L55,4L55,3ZM56,2L55,2L55,3L56,3L56,2ZM42,2L41,2L41,3L42,3L42,2Z"/>
</svg>
