<svg xmlns="http://www.w3.org/2000/svg" version="1.1" viewBox="0 0 64 64" fill="#331d22">
	<path d="M5,61L5,62L2,62L2,63L0,63L0,64L35,64L35,63L34,63L34,62L32,62L32,61L31,61L31,60L29,60L29,57L28,57L28,56L24,56L24,54L23,54L23,53L21,53L21,55L20,55L20,58L19,58L19,57L18,57L18,56L16,56L16,57L15,57L15,59L14,59L14,58L11,58L11,59L10,59L10,60L6,60L6,61L5,61ZM39,56L38,56L38,57L39,57L39,56ZM11,50L12,50L12,51L13,51L13,50L14,50L14,49L13,49L13,48L12,48L12,49L11,49L11,50ZM43,50L42,50L42,51L43,51L43,50ZM37,48L36,48L36,49L37,49L37,48ZM58,46L59,46L59,47L60,47L60,46L61,46L61,45L60,45L60,44L59,44L59,45L58,45L58,46ZM26,43L26,42L31,42L31,43L46,43L46,44L55,44L55,43L60,43L60,42L61,42L61,41L62,41L62,39L61,39L61,38L60,38L60,37L57,37L57,36L59,36L59,33L58,33L58,32L57,32L57,31L56,31L56,30L53,30L53,31L51,31L51,30L53,30L53,29L54,29L54,25L53,25L53,24L52,24L52,23L51,23L51,20L50,20L50,18L49,18L49,17L47,17L47,16L45,16L45,15L41,15L41,17L40,17L40,19L39,19L39,21L38,21L38,17L36,17L36,18L35,18L35,19L33,19L33,20L32,20L32,21L31,21L31,24L30,24L30,23L29,23L29,21L28,21L28,20L24,20L24,21L23,21L23,22L22,22L22,23L21,23L21,26L22,26L22,27L21,27L21,26L20,26L20,25L16,25L16,26L14,26L14,27L13,27L13,29L12,29L12,32L11,32L11,35L10,35L10,36L8,36L8,37L6,37L6,38L4,38L4,39L3,39L3,41L4,41L4,42L11,42L11,43L26,43ZM5,26L7,26L7,28L8,28L8,26L10,26L10,25L8,25L8,23L7,23L7,25L5,25L5,26ZM58,24L57,24L57,25L58,25L58,24ZM18,20L17,20L17,21L18,21L18,20ZM9,16L8,16L8,17L9,17L9,16ZM30,16L29,16L29,17L30,17L30,16ZM57,8L56,8L56,9L57,9L57,8ZM39,7L38,7L38,8L39,8L39,7ZM43,3L42,3L42,4L43,4L43,3ZM64,0L63,0L63,1L64,1L64,0Z"/>
</svg>
