<?xml version="1.0" encoding="UTF-8" ?>
<svg version="1.1" width="24" height="24" xmlns="http://www.w3.org/2000/svg" shape-rendering="crispEdges">
<rect x="5" y="5" width="1" height="1" fill="#D2989A" />
<rect x="6" y="5" width="1" height="1" fill="#D2989A" />
<rect x="17" y="5" width="1" height="1" fill="#D2989A" />
<rect x="18" y="5" width="1" height="1" fill="#D2989A" />
<rect x="5" y="6" width="1" height="1" fill="#D2989A" />
<rect x="6" y="6" width="1" height="1" fill="#D2989A" />
<rect x="17" y="6" width="1" height="1" fill="#D2989A" />
<rect x="18" y="6" width="1" height="1" fill="#D2989A" />
<rect x="5" y="17" width="1" height="1" fill="#D2989A" />
<rect x="6" y="17" width="1" height="1" fill="#D2989A" />
<rect x="17" y="17" width="1" height="1" fill="#D2989A" />
<rect x="18" y="17" width="1" height="1" fill="#D2989A" />
<rect x="5" y="18" width="1" height="1" fill="#D2989A" />
<rect x="6" y="18" width="1" height="1" fill="#D2989A" />
<rect x="17" y="18" width="1" height="1" fill="#D2989A" />
<rect x="18" y="18" width="1" height="1" fill="#D2989A" />
</svg>