<?xml version="1.0" encoding="UTF-8" ?>
<svg version="1.1" width="24" height="24" xmlns="http://www.w3.org/2000/svg" shape-rendering="crispEdges">
<rect x="0" y="0" width="1" height="1" fill="#D2989A" />
<rect x="11" y="0" width="1" height="1" fill="#D2989A" />
<rect x="12" y="0" width="1" height="1" fill="#D2989A" />
<rect x="23" y="0" width="1" height="1" fill="#D2989A" />
<rect x="0" y="11" width="1" height="1" fill="#D2989A" />
<rect x="11" y="11" width="1" height="1" fill="#D2989A" />
<rect x="12" y="11" width="1" height="1" fill="#D2989A" />
<rect x="23" y="11" width="1" height="1" fill="#D2989A" />
<rect x="0" y="12" width="1" height="1" fill="#D2989A" />
<rect x="11" y="12" width="1" height="1" fill="#D2989A" />
<rect x="12" y="12" width="1" height="1" fill="#D2989A" />
<rect x="23" y="12" width="1" height="1" fill="#D2989A" />
<rect x="0" y="23" width="1" height="1" fill="#D2989A" />
<rect x="11" y="23" width="1" height="1" fill="#D2989A" />
<rect x="12" y="23" width="1" height="1" fill="#D2989A" />
<rect x="23" y="23" width="1" height="1" fill="#D2989A" />
</svg>