<?xml version="1.0" standalone="no"?>
<!DOCTYPE svg PUBLIC "-//W3C//DTD SVG 20010904//EN"
 "http://www.w3.org/TR/2001/REC-SVG-20010904/DTD/svg10.dtd">
<svg version="1.0" xmlns="http://www.w3.org/2000/svg"
 width="576.000000pt" height="576.000000pt" viewBox="0 0 576.000000 576.000000"
 preserveAspectRatio="xMidYMid meet">
<metadata>
Created by potrace 1.11, written by Peter Selinger 2001-2013
</metadata>
<g transform="translate(0.000000,576.000000) scale(0.100000,-0.100000)"
fill="#000000" stroke="none">
<path d="M960 4800 l0 -480 -240 0 -240 0 0 -1920 0 -1920 960 0 960 0 0 960
0 960 480 0 480 0 0 -960 0 -960 960 0 960 0 0 1920 0 1920 -240 0 -240 0 0
480 0 480 -1920 0 -1920 0 0 -480z m2400 -1200 l0 -720 -480 0 -480 0 0 720 0
720 480 0 480 0 0 -720z"/>
</g>
</svg>
