<svg xmlns="http://www.w3.org/2000/svg" width="16" height="16" viewBox="0 0 768 768">
	<g transform="translate(0, 768) scale(0.1, -0.1)" fill="#F96167">
		<path d="M960 7520 l0 -160 -160 0 -160 0 0 -3520 0 -3520 160 0 160 0 0 -160 0 -160 2880 0 2880 0 0 160 0 160 160 0 160 0 0 3520 0 3520 -160 0 -160 0 0 160 0 160 -2880 0 -2880 0 0 -160z m4480 -3040 l0 -1920 320 0 320 0 0 -640 0 -640 -2240 0 -2240 0 0 1920 0 1920 640 0 640 0 0 640 0 640 1280 0 1280 0 0 -1920z"/>
		<path d="M2880 3520 l0 -1600 640 0 640 0 0 1600 0 1600 -640 0 -640 0 0 -1600z"/>
	</g>
</svg>
